<mxfile host="app.diagrams.net" agent="Mozilla/5.0 (Windows NT 10.0; Win64; x64) AppleWebKit/537.36 (KHTML, like Gecko) Chrome/140.0.0.0 Safari/537.36" version="28.2.5">
  <diagram name="PÃ¡gina-1" id="2JtWKbVfCeuRTKR3XaeL">
    <mxGraphModel dx="1426" dy="777" grid="1" gridSize="10" guides="1" tooltips="1" connect="1" arrows="1" fold="1" page="1" pageScale="1" pageWidth="827" pageHeight="1169" math="0" shadow="0">
      <root>
        <mxCell id="0" />
        <mxCell id="1" parent="0" />
        <mxCell id="WwukuwWlP8gVzTD-kQ2j-5" value="&amp;lt;&amp;lt;INTERFACE&amp;gt;&amp;gt;&lt;div&gt;IShapeShifter&lt;/div&gt;" style="swimlane;fontStyle=1;align=center;verticalAlign=top;childLayout=stackLayout;horizontal=1;startSize=36;horizontalStack=0;resizeParent=1;resizeParentMax=0;resizeLast=0;collapsible=1;marginBottom=0;whiteSpace=wrap;html=1;" parent="1" vertex="1">
          <mxGeometry x="184" y="90" width="230" height="148" as="geometry" />
        </mxCell>
        <mxCell id="WwukuwWlP8gVzTD-kQ2j-7" value="" style="line;strokeWidth=1;fillColor=none;align=left;verticalAlign=middle;spacingTop=-1;spacingLeft=3;spacingRight=3;rotatable=0;labelPosition=right;points=[];portConstraint=eastwest;strokeColor=inherit;" parent="WwukuwWlP8gVzTD-kQ2j-5" vertex="1">
          <mxGeometry y="36" width="230" height="8" as="geometry" />
        </mxCell>
        <mxCell id="WwukuwWlP8gVzTD-kQ2j-8" value="+ compose(IShapeShifter): IShapeShifter" style="text;strokeColor=none;fillColor=none;align=left;verticalAlign=top;spacingLeft=4;spacingRight=4;overflow=hidden;rotatable=0;points=[[0,0.5],[1,0.5]];portConstraint=eastwest;whiteSpace=wrap;html=1;" parent="WwukuwWlP8gVzTD-kQ2j-5" vertex="1">
          <mxGeometry y="44" width="230" height="26" as="geometry" />
        </mxCell>
        <mxCell id="WwukuwWlP8gVzTD-kQ2j-13" value="+ deepest(): int" style="text;strokeColor=none;fillColor=none;align=left;verticalAlign=top;spacingLeft=4;spacingRight=4;overflow=hidden;rotatable=0;points=[[0,0.5],[1,0.5]];portConstraint=eastwest;whiteSpace=wrap;html=1;" parent="WwukuwWlP8gVzTD-kQ2j-5" vertex="1">
          <mxGeometry y="70" width="230" height="26" as="geometry" />
        </mxCell>
        <mxCell id="WwukuwWlP8gVzTD-kQ2j-14" value="+ flat(): IShapeShifter" style="text;strokeColor=none;fillColor=none;align=left;verticalAlign=top;spacingLeft=4;spacingRight=4;overflow=hidden;rotatable=0;points=[[0,0.5],[1,0.5]];portConstraint=eastwest;whiteSpace=wrap;html=1;" parent="WwukuwWlP8gVzTD-kQ2j-5" vertex="1">
          <mxGeometry y="96" width="230" height="26" as="geometry" />
        </mxCell>
        <mxCell id="WwukuwWlP8gVzTD-kQ2j-15" value="+ values(): List&amp;lt;Integer&amp;gt;" style="text;strokeColor=none;fillColor=none;align=left;verticalAlign=top;spacingLeft=4;spacingRight=4;overflow=hidden;rotatable=0;points=[[0,0.5],[1,0.5]];portConstraint=eastwest;whiteSpace=wrap;html=1;" parent="WwukuwWlP8gVzTD-kQ2j-5" vertex="1">
          <mxGeometry y="122" width="230" height="26" as="geometry" />
        </mxCell>
        <mxCell id="WwukuwWlP8gVzTD-kQ2j-27" style="edgeStyle=orthogonalEdgeStyle;rounded=0;orthogonalLoop=1;jettySize=auto;html=1;endArrow=block;endFill=0;dashed=1;" parent="1" source="WwukuwWlP8gVzTD-kQ2j-16" edge="1">
          <mxGeometry relative="1" as="geometry">
            <mxPoint x="300" y="240" as="targetPoint" />
            <Array as="points">
              <mxPoint x="160" y="260" />
              <mxPoint x="300" y="260" />
            </Array>
          </mxGeometry>
        </mxCell>
        <mxCell id="WwukuwWlP8gVzTD-kQ2j-16" value="Item" style="swimlane;fontStyle=1;align=center;verticalAlign=top;childLayout=stackLayout;horizontal=1;startSize=26;horizontalStack=0;resizeParent=1;resizeParentMax=0;resizeLast=0;collapsible=1;marginBottom=0;whiteSpace=wrap;html=1;" parent="1" vertex="1">
          <mxGeometry x="50" y="280" width="230" height="164" as="geometry" />
        </mxCell>
        <mxCell id="WwukuwWlP8gVzTD-kQ2j-38" value="- value: int" style="text;strokeColor=none;fillColor=none;align=left;verticalAlign=top;spacingLeft=4;spacingRight=4;overflow=hidden;rotatable=0;points=[[0,0.5],[1,0.5]];portConstraint=eastwest;whiteSpace=wrap;html=1;" parent="WwukuwWlP8gVzTD-kQ2j-16" vertex="1">
          <mxGeometry y="26" width="230" height="26" as="geometry" />
        </mxCell>
        <mxCell id="WwukuwWlP8gVzTD-kQ2j-18" value="" style="line;strokeWidth=1;fillColor=none;align=left;verticalAlign=middle;spacingTop=-1;spacingLeft=3;spacingRight=3;rotatable=0;labelPosition=right;points=[];portConstraint=eastwest;strokeColor=inherit;" parent="WwukuwWlP8gVzTD-kQ2j-16" vertex="1">
          <mxGeometry y="52" width="230" height="8" as="geometry" />
        </mxCell>
        <mxCell id="WwukuwWlP8gVzTD-kQ2j-34" value="+ compose(IShapeShifter): IShapeShifter" style="text;strokeColor=none;fillColor=none;align=left;verticalAlign=top;spacingLeft=4;spacingRight=4;overflow=hidden;rotatable=0;points=[[0,0.5],[1,0.5]];portConstraint=eastwest;whiteSpace=wrap;html=1;" parent="WwukuwWlP8gVzTD-kQ2j-16" vertex="1">
          <mxGeometry y="60" width="230" height="26" as="geometry" />
        </mxCell>
        <mxCell id="WwukuwWlP8gVzTD-kQ2j-35" value="+ deepest(): int" style="text;strokeColor=none;fillColor=none;align=left;verticalAlign=top;spacingLeft=4;spacingRight=4;overflow=hidden;rotatable=0;points=[[0,0.5],[1,0.5]];portConstraint=eastwest;whiteSpace=wrap;html=1;" parent="WwukuwWlP8gVzTD-kQ2j-16" vertex="1">
          <mxGeometry y="86" width="230" height="26" as="geometry" />
        </mxCell>
        <mxCell id="WwukuwWlP8gVzTD-kQ2j-37" value="+ values(): List&amp;lt;Integer&amp;gt;" style="text;strokeColor=none;fillColor=none;align=left;verticalAlign=top;spacingLeft=4;spacingRight=4;overflow=hidden;rotatable=0;points=[[0,0.5],[1,0.5]];portConstraint=eastwest;whiteSpace=wrap;html=1;" parent="WwukuwWlP8gVzTD-kQ2j-16" vertex="1">
          <mxGeometry y="112" width="230" height="26" as="geometry" />
        </mxCell>
        <mxCell id="WwukuwWlP8gVzTD-kQ2j-36" value="+ flat(): IShapeShifter" style="text;strokeColor=none;fillColor=none;align=left;verticalAlign=top;spacingLeft=4;spacingRight=4;overflow=hidden;rotatable=0;points=[[0,0.5],[1,0.5]];portConstraint=eastwest;whiteSpace=wrap;html=1;" parent="WwukuwWlP8gVzTD-kQ2j-16" vertex="1">
          <mxGeometry y="138" width="230" height="26" as="geometry" />
        </mxCell>
        <mxCell id="WwukuwWlP8gVzTD-kQ2j-28" style="edgeStyle=orthogonalEdgeStyle;rounded=0;orthogonalLoop=1;jettySize=auto;html=1;dashed=1;endArrow=block;endFill=0;" parent="1" source="WwukuwWlP8gVzTD-kQ2j-20" edge="1">
          <mxGeometry relative="1" as="geometry">
            <mxPoint x="300" y="240" as="targetPoint" />
            <Array as="points">
              <mxPoint x="440" y="260" />
              <mxPoint x="300" y="260" />
            </Array>
          </mxGeometry>
        </mxCell>
        <mxCell id="WwukuwWlP8gVzTD-kQ2j-29" value="Implements" style="edgeLabel;html=1;align=center;verticalAlign=middle;resizable=0;points=[];" parent="WwukuwWlP8gVzTD-kQ2j-28" vertex="1" connectable="0">
          <mxGeometry x="0.7968" relative="1" as="geometry">
            <mxPoint as="offset" />
          </mxGeometry>
        </mxCell>
        <mxCell id="WwukuwWlP8gVzTD-kQ2j-20" value="Nivel" style="swimlane;fontStyle=1;align=center;verticalAlign=top;childLayout=stackLayout;horizontal=1;startSize=26;horizontalStack=0;resizeParent=1;resizeParentMax=0;resizeLast=0;collapsible=1;marginBottom=0;whiteSpace=wrap;html=1;" parent="1" vertex="1">
          <mxGeometry x="320" y="280" width="230" height="138" as="geometry" />
        </mxCell>
        <mxCell id="WwukuwWlP8gVzTD-kQ2j-22" value="" style="line;strokeWidth=1;fillColor=none;align=left;verticalAlign=middle;spacingTop=-1;spacingLeft=3;spacingRight=3;rotatable=0;labelPosition=right;points=[];portConstraint=eastwest;strokeColor=inherit;" parent="WwukuwWlP8gVzTD-kQ2j-20" vertex="1">
          <mxGeometry y="26" width="230" height="8" as="geometry" />
        </mxCell>
        <mxCell id="WwukuwWlP8gVzTD-kQ2j-30" value="+ compose(IShapeShifter): IShapeShifter" style="text;strokeColor=none;fillColor=none;align=left;verticalAlign=top;spacingLeft=4;spacingRight=4;overflow=hidden;rotatable=0;points=[[0,0.5],[1,0.5]];portConstraint=eastwest;whiteSpace=wrap;html=1;" parent="WwukuwWlP8gVzTD-kQ2j-20" vertex="1">
          <mxGeometry y="34" width="230" height="26" as="geometry" />
        </mxCell>
        <mxCell id="WwukuwWlP8gVzTD-kQ2j-31" value="+ deepest(): int" style="text;strokeColor=none;fillColor=none;align=left;verticalAlign=top;spacingLeft=4;spacingRight=4;overflow=hidden;rotatable=0;points=[[0,0.5],[1,0.5]];portConstraint=eastwest;whiteSpace=wrap;html=1;" parent="WwukuwWlP8gVzTD-kQ2j-20" vertex="1">
          <mxGeometry y="60" width="230" height="26" as="geometry" />
        </mxCell>
        <mxCell id="WwukuwWlP8gVzTD-kQ2j-33" value="+ values(): List&amp;lt;Integer&amp;gt;" style="text;strokeColor=none;fillColor=none;align=left;verticalAlign=top;spacingLeft=4;spacingRight=4;overflow=hidden;rotatable=0;points=[[0,0.5],[1,0.5]];portConstraint=eastwest;whiteSpace=wrap;html=1;" parent="WwukuwWlP8gVzTD-kQ2j-20" vertex="1">
          <mxGeometry y="86" width="230" height="26" as="geometry" />
        </mxCell>
        <mxCell id="WwukuwWlP8gVzTD-kQ2j-32" value="+ flat(): IShapeShifter" style="text;strokeColor=none;fillColor=none;align=left;verticalAlign=top;spacingLeft=4;spacingRight=4;overflow=hidden;rotatable=0;points=[[0,0.5],[1,0.5]];portConstraint=eastwest;whiteSpace=wrap;html=1;" parent="WwukuwWlP8gVzTD-kQ2j-20" vertex="1">
          <mxGeometry y="112" width="230" height="26" as="geometry" />
        </mxCell>
        <mxCell id="WwukuwWlP8gVzTD-kQ2j-24" style="edgeStyle=orthogonalEdgeStyle;rounded=0;orthogonalLoop=1;jettySize=auto;html=1;entryX=1.003;entryY=0.374;entryDx=0;entryDy=0;entryPerimeter=0;curved=0;endArrow=blockThin;endFill=1;" parent="1" source="WwukuwWlP8gVzTD-kQ2j-20" target="WwukuwWlP8gVzTD-kQ2j-13" edge="1">
          <mxGeometry relative="1" as="geometry">
            <Array as="points">
              <mxPoint x="460" y="170" />
            </Array>
          </mxGeometry>
        </mxCell>
        <mxCell id="WwukuwWlP8gVzTD-kQ2j-25" value="elementos" style="edgeLabel;html=1;align=center;verticalAlign=middle;resizable=0;points=[];" parent="WwukuwWlP8gVzTD-kQ2j-24" vertex="1" connectable="0">
          <mxGeometry x="0.7974" y="-2" relative="1" as="geometry">
            <mxPoint x="60" y="102" as="offset" />
          </mxGeometry>
        </mxCell>
        <mxCell id="WwukuwWlP8gVzTD-kQ2j-26" value="*" style="edgeLabel;html=1;align=center;verticalAlign=middle;resizable=0;points=[];" parent="WwukuwWlP8gVzTD-kQ2j-24" vertex="1" connectable="0">
          <mxGeometry x="0.7805" y="-1" relative="1" as="geometry">
            <mxPoint x="-2" y="-9" as="offset" />
          </mxGeometry>
        </mxCell>
        <mxCell id="WwukuwWlP8gVzTD-kQ2j-39" value="COMPONENT" style="text;html=1;align=center;verticalAlign=middle;resizable=0;points=[];autosize=1;strokeColor=none;fillColor=none;" parent="1" vertex="1">
          <mxGeometry x="249" y="60" width="100" height="30" as="geometry" />
        </mxCell>
        <mxCell id="WwukuwWlP8gVzTD-kQ2j-40" value="COMPOSITE" style="text;html=1;align=center;verticalAlign=middle;resizable=0;points=[];autosize=1;strokeColor=none;fillColor=none;" parent="1" vertex="1">
          <mxGeometry x="540" y="280" width="100" height="30" as="geometry" />
        </mxCell>
        <mxCell id="WwukuwWlP8gVzTD-kQ2j-41" value="LEAF" style="text;html=1;align=center;verticalAlign=middle;resizable=0;points=[];autosize=1;strokeColor=none;fillColor=none;" parent="1" vertex="1">
          <mxGeometry y="280" width="50" height="30" as="geometry" />
        </mxCell>
      </root>
    </mxGraphModel>
  </diagram>
</mxfile>
